<svg xmlns="http://www.w3.org/2000/svg" viewBox="0 0 3000 3000" width="32" height="32"><path d="M461.288 777.966H216.444q-30.606.295-30.606 30.312 0 30.9 30.9 31.194H370.06q92.699 0 92.993 79.456v30.311q-1.471 77.103-94.465 77.103H124.627v-61.505h236.016q38.845-.295 40.022-34.137-.294-27.957-39.728-28.546h-144.2q-92.699 0-92.993-75.925v-31.194q.294-77.691 92.994-77.691h244.55zM847.093 964.542v61.8h-233.66q-91.817-.883-92.7-90.934V810.043q0-92.405 92.7-92.7h154.792q91.817.59 92.7 77.103v96.525h-244.55v-62.976h182.456l.294-25.603q-.294-23.249-30.9-23.249H629.618q-47.086 0-47.086 44.143v95.642q0 45.909 41.789 45.614zM994.53 1026.342h-61.8V717.05h247.198q92.994.588 92.994 92.993l.294 216.004h-62.388v-206.88q-.883-39.435-41.2-40.318H994.53ZM1670.793 717.344l-149.496 307.232h-37.962l-150.968-307.232h67.391l103.294 211.001 103.882-211.001zM1745.542 778.85v-61.506h216.004q92.405 0 92.994 90.64v218.358h-254.556q-85.342 0-85.342-77.103v-42.67q0-78.28 78.868-78.574h163.327v61.8h-135.959q-44.437 0-44.73 36.196h.293q0 38.551 41.2 38.551h175.099l-.294-136.842q0-48.85-41.494-48.85zM2188.144 1026.342h-61.8V717.05h247.199q92.994.588 92.994 92.993l.294 216.004h-62.388v-206.88q-.883-39.435-41.2-40.318h-175.099zM2878.828 1057.242q0 92.699-92.7 92.699h-185.692v-61.8h175.981q40.612 0 40.612-38.845V778.555h-163.622q-52.677 1.177-52.971 47.968v95.937q0 42.67 43.26 42.377h142.138v61.505h-154.793q-92.405 0-92.7-90.64l.295-123.304q.589-94.76 92.994-95.054h247.198z" style="font-weight:700;font-size:602.693px;line-height:1.25;font-family:&quot;Anita Semi-square&quot;;-inkscape-font-specification:&quot;Anita Semi-square Bold&quot;;letter-spacing:0;word-spacing:0;fill:#0080c0;stroke-width:.367295" transform="translate(9.297 750)"/><path d="M348.163 1170.254c225.92 52.036 542.728 87.65 852.417 95.845 436.486 11.444 870.448-23.023 1191.92-94.754 51.69-11.345 71.864-17.204 50.438-14.648-4.088.642-83.797 12.616-176.81 26.947-181.938 28.02-271.076 37.974-432.229 48.194-282.016 17.885-606.48 13.087-906.724-13.283-250.583-21.78-522.905-62.762-735.852-110.641-63.772-14.22-69.604-15.19-62.794-9.528 18.63 16.46 111.99 47.036 219.634 71.868z" style="fill:#ffde80;fill-opacity:1;stroke:none;stroke-width:.469231" transform="translate(9.297 750)"/><path d="M1527.602-732.425c-4.321 8.554-11.884 22.96-16.836 32.053l-8.913 16.566 6.572 14.946c3.601 8.193 7.833 17.916 9.544 21.608l3.06 6.662 7.204-21.788c4.862-14.946 7.382-21.248 7.833-20.168.36.9 2.97 10.444 5.762 21.158 2.79 10.805 5.402 19.628 5.762 19.628.36 0 5.132-9.274 10.624-20.528l10.084-20.528-16.476-32.502-16.387-32.502zM1461.787-709.916c-3.871 19.537-13.505 41.866-38.174 88.234-5.762 10.894-12.605 25.21-15.306 31.962-6.302 16.026-7.833 24.759-7.203 40.245.99 22.419 7.743 40.335 20.528 53.93 5.582 6.033 26.29 20.438 36.734 25.75 5.042 2.521 17.287 6.303 20.438 6.303.72 0-1.35-2.521-4.412-5.672-7.293-7.293-12.785-14.226-15.576-19.718-5.762-11.344-6.302-26.38-1.35-41.056 4.771-14.315 9.903-22.868 28.45-47.898 19.628-26.38 29.802-44.477 29.622-52.67-.18-10.174-12.875-40.965-23.59-57.171-5.401-8.194-16.205-20.708-22.868-26.38-2.7-2.341-5.132-4.232-5.312-4.232-.18 0-1.08 3.781-1.98 8.373zM1601.79-713.787c-6.392 5.312-17.736 18.547-23.228 27.01-8.824 13.685-18.997 37.274-22.419 51.77-1.17 5.041-1.17 5.672.81 11.434 3.422 9.814 15.036 28.27 31.873 50.599 21.158 28.09 28.09 43.487 28.09 62.754 0 15.576-4.321 24.76-18.367 39.255-4.231 4.321-7.743 8.013-7.743 8.013 0 .09 3.692-.72 8.194-1.89 9.363-2.432 17.286-6.303 30.521-15.127 14.946-9.993 18.547-12.965 23.77-19.807 9.453-12.425 15.035-27.46 16.746-45.107 2.07-21.428-3.332-41.056-19.718-71.668-12.245-22.778-29.711-58.072-33.133-67.075-1.8-4.412-4.681-14.135-6.482-21.428l-3.331-13.325z" style="fill:#ffde80;fill-opacity:1;stroke:none;stroke-width:.0900342" transform="matrix(1.3882 0 0 1.3882 -625.838 2019.872)"/><path d="M1347.264-706.045c.27 1.981.9 5.313 1.35 7.563.45 2.251 1.26 9.544 1.891 16.116 1.35 15.576.09 35.024-4.322 64.915-2.79 18.907-3.33 24.4-3.33 38.715 0 13.505.27 17.827 1.62 22.959 5.132 18.997 16.476 36.553 32.862 50.599 14.676 12.605 38.805 26.74 55.101 32.232 8.733 2.971 9.364 2.881 3.511-1.08-8.823-5.853-18.997-14.946-24.849-22.239-6.663-8.283-13.235-20.978-15.306-29.351-2.79-10.984-.18-40.155 5.132-59.423 2.791-9.813 7.473-20.257 16.837-37.004 7.652-13.955 13.685-26.11 13.685-27.82 0-.45-3.422-4.322-7.653-8.733-4.142-4.322-7.653-8.194-7.653-8.554 0-1.35-21.428-19.897-28.72-24.85-12.876-8.822-27.281-15.485-36.555-16.926l-4.141-.54zM1716.404-706.945c-2.971.72-10.264 3.692-16.206 6.663-16.836 8.463-29.261 18.367-49.429 39.885l-10.624 11.434 2.521 5.942c1.35 3.242 5.312 10.895 8.733 16.927 16.297 28.72 21.068 41.596 24.58 66.715 2.25 16.567 1.98 29.892-.9 38.715-4.862 15.306-17.827 32.322-33.313 43.667-3.962 2.97-8.103 5.942-9.094 6.752-2.97 2.16 13.055-3.511 22.149-7.923 31.872-15.396 57.532-38.895 67.886-62.304 4.771-10.804 6.032-17.016 6.482-32.412.45-14.856.27-16.836-4.592-52.22-4.411-31.782-4.681-52.67-.99-73.738.72-4.411 1.35-8.373 1.35-8.733 0-1.08-2.07-.9-8.553.63zM1532.734-653.014c-8.643 23.499-18.547 44.206-27.64 58.252-2.701 4.141-9.634 13.775-15.486 21.428-11.164 14.766-18.817 28.54-21.698 39.165-2.341 8.463-2.791 24.94-.99 33.042 5.131 23.05 21.608 38.625 48.168 45.378 10.624 2.79 26.29 3.06 37.454.81 25.3-5.222 44.387-20.978 51.14-42.316 2.88-9.274 2.61-23.95-.631-35.114-3.421-11.704-11.074-26.2-20.798-39.615-28.18-38.804-35.473-50.959-47.538-79.68-1.17-2.791-1.35-2.971-1.98-1.35z" style="fill:#ffde80;fill-opacity:1;stroke:none;stroke-width:.0900342" transform="matrix(1.3882 0 0 1.3882 -625.838 2019.872)"/><path d="M1303.147-576.395c-8.103 1.08-14.946 2.61-28.36 6.212-23.68 6.303-29.442 7.113-49.97 7.113-16.566 0-19.267-.18-33.583-2.881-8.553-1.62-16.206-3.242-16.926-3.512-4.322-1.62 8.643 15.216 20.978 27.46 16.746 16.477 40.425 32.773 65.545 45.198 25.39 12.605 53.3 21.158 87.333 26.92 26.02 4.322 65.185 8.193 73.378 7.293l4.052-.54-3.242-1.44c-1.8-.721-4.231-1.711-5.402-2.072-5.042-1.62-19.897-9.723-27.37-14.945-10.354-7.383-28.991-25.93-36.374-36.374-10.624-14.946-16.116-28.991-18.637-47.628-.72-5.402-1.44-10.084-1.71-10.264-.54-.63-26.2-.99-29.712-.54zM1740.533-576.305l-3.781.36-.54 5.132c-3.242 30.161-14.136 51.23-38.805 74.908-14.406 13.776-28.54 23.23-43.216 28.811-4.412 1.62-8.374 3.332-8.824 3.782-1.62 1.35 16.206.72 34.843-1.17 58.072-5.853 96.427-15.667 131.63-33.493 34.574-17.467 66.086-42.857 81.571-65.635 3.962-5.763 4.142-6.483 1.891-5.673-.99.27-8.373 1.711-16.476 3.242-29.802 5.492-52.49 4.501-81.841-3.692-18.998-5.312-25.03-6.392-39.165-6.662-7.383-.18-15.216-.18-17.287.09z" style="fill:#ffde80;fill-opacity:1;stroke:none;stroke-width:.0900342" transform="matrix(1.3882 0 0 1.3882 -625.838 2019.872)"/></svg>